<svg xmlns="http://www.w3.org/2000/svg" viewBox="0 0 25.42 67.7"><defs><style>.cls-1{fill:#8fbce5;}</style></defs><g id="Layer_2" data-name="Layer 2"><path class="cls-1" d="M303,299.34l-5.5,26.57c-1.43,6.88-3.18,15.6,3.11,20.72,2.79,2.28,6.25,3.32,9.73,4,1.91.4,3.94.88,5.88.38a6.41,6.41,0,0,0,4.06-3.45c1.78-3.69,1.35-8.26.75-12.18a92.89,92.89,0,0,0-3.21-12.48l-8.74-29.21c-.92-3.07-5.7-1.78-4.82,1.33a10.34,10.34,0,0,1-1.47,8.75c-1.8,2.68,2.53,5.18,4.32,2.53a15.27,15.27,0,0,0,2-12.61l-4.82,1.33,7,23.28c1.17,3.9,2.39,7.79,3.48,11.71A40,40,0,0,1,316.49,341a10.87,10.87,0,0,1-.55,4.08c-.54,1.31-1.47,1.3-2.78,1.07-2.83-.5-5.87-1.09-8.35-2.61-5.54-3.38-3.64-10.86-2.56-16.06l5.55-26.81a2.55,2.55,0,0,0-1.75-3.07,2.52,2.52,0,0,0-3.07,1.74Z" transform="translate(-296.12 -283.57)"/><path class="cls-1" d="M309.53,295.19c-.93-3.91-3.23-7.33-4.08-11.26a.5.5,0,0,0-1,0,24.76,24.76,0,0,0-.57,5.5,36.18,36.18,0,0,1-.64,5.68c-.69,3.81-1.19,7.66-1.69,11.51-.09.64.91.63,1,0,.5-3.84,1-7.68,1.7-11.49a36.69,36.69,0,0,0,.62-5.34,25.69,25.69,0,0,1,.54-5.6h-1c.85,3.93,3.15,7.36,4.07,11.27.15.62,1.12.36,1-.27Z" transform="translate(-296.12 -283.57)"/><path class="cls-1" d="M303.55,297.19c.43,10.48-1.19,20.72-3.34,30.94-.66,3.12-2.69,7.68-1.67,10.9.95,3,4.68,4.39,7.33,5.36,5.51,2,14.08,3.62,14.13-4.55,0-4.15-2.74-6.59-4.62-10-2.77-5-5-11.11-5.07-16.8l-5.59,1.51c5.59,7.29-5.17,14.92-1.26,22.36,1.55,2.93,4.85,3.25,5.37,6.75.28,1.84-.12,3.17,1.85,4.22,5.63,3,6.32-5.77,5.83-9-.37-2.43-1.25-6-3.26-7.68a17.48,17.48,0,0,0-2.41-1.15c-.61-1.42,2.28-4.43,3-5.66l-5.59-1.51,0,.46,1.49-2.59-.41.22c-3.4,1.82-.38,7,3,5.18l.41-.22a3,3,0,0,0,1.48-2.59l0-.46c-.22-2.89-4-4.19-5.59-1.52-2.08,3.45-5.69,6.44-4,10.92.63,1.65,1.64,2.22,3,3.17s1.86.59,2.5,2.63l.49,2.43q-.77,2.53,1.91,1.78l2.1,2.09c.31,1.95.64-.72.67-1.43a6.67,6.67,0,0,0-.77-2.94,14.34,14.34,0,0,0-3.51-4.27c-1.84-1.59-1.8-1-2-3.16-.34-4,3.1-8,3.49-11.94a12.57,12.57,0,0,0-2.72-9.08c-1.67-2.18-5.65-1.75-5.59,1.52.11,6.16,2.2,11.87,4.72,17.43.54,1.19,5.75,8.37,4.69,9.48-.9.94-9-2-9.26-2.81-.71-1.83,1.5-7.23,1.92-9.28.7-3.4,1.34-6.8,1.86-10.22a106.25,106.25,0,0,0,1.31-20.47c-.16-3.84-6.16-3.86-6,0Z" transform="translate(-296.12 -283.57)"/><path class="cls-1" d="M314.44,328.06a1.5,1.5,0,0,0,0-3,1.5,1.5,0,0,0,0,3Z" transform="translate(-296.12 -283.57)"/><path class="cls-1" d="M304.8,286.5a45,45,0,0,1-.39,6.25c-.05.36.21.72.61.61a15.86,15.86,0,0,0,2.5-.9.5.5,0,0,0,.1-.78,4.33,4.33,0,0,1-1.34-3.24h-1a10.8,10.8,0,0,1,.22,1.6c0,.26,0,.52,0,.78s0,.24,0,.36a1.85,1.85,0,0,1,0,.41l.17-.18c-.09.07-.28,0-.39,0l.43.75.28-.42c.36-.54-.51-1-.86-.51l-.28.43a.5.5,0,0,0,.43.75c.36,0,.86,0,1.08-.34a2.75,2.75,0,0,0,.17-1.28,11.81,11.81,0,0,0-.28-2.65c-.1-.46-.89-.49-1,0a5.24,5.24,0,0,0,1.6,4.21l.1-.78a15.17,15.17,0,0,1-2.26.8l.61.61a47.25,47.25,0,0,0,.43-6.51.5.5,0,0,0-1,0Z" transform="translate(-296.12 -283.57)"/></g></svg>