<svg id="Layer_5" data-name="Layer 5" xmlns="http://www.w3.org/2000/svg" viewBox="0 0 370.03 385.22"><defs><style>.cls-1{fill:#facbda;}.cls-2{fill:#fff;}.cls-3{fill:#ed1c24;}</style></defs><path class="cls-1" d="M239.32,307.5c-3.19-7.3-6.36-14.69-7.92-22.65a44.14,44.14,0,0,1,1.53-22c4-13.18,11.27-26.14,8-40.53l-6.33,1.92a82.64,82.64,0,0,0,16.88,28.7c6.92,7.55,15.5,13.79,20.83,22.92,4,6.77,6.11,16.67,2,23.93-4.63,8.1-15.44,7.57-22.86,10a34.81,34.81,0,0,0-7.17,3.4c-2,1.21-4.36,3-6.76,2.59-1.73-.31-2.4-1.23-1.92-3.05.76-2.94,1.78-5.5,1-8.62-1.11-4.46-7.44-2.56-6.33,1.92.51,2.06-1.18,4.85-1.39,7a8.8,8.8,0,0,0,2.69,7.46c4.27,3.91,9.71,2.62,14.21,0a41.11,41.11,0,0,1,6.82-3.58,65.91,65.91,0,0,1,7.76-2c4.73-1,9.67-2.1,13.77-5.05,8.45-6.1,10.35-17.58,7.85-27.76-2.8-11.41-10.84-19.48-18.64-27-4.61-4.47-9.18-9-13-14.36a75,75,0,0,1-9.42-18.42c-1.48-4.24-7.37-2.67-6.33,1.92,1.54,6.74,0,13.45-2.08,19.84-2.21,6.77-5.08,13.28-6.86,20.21a50.87,50.87,0,0,0-.42,23.25c1.74,8.25,5.11,16,8.43,23.59,1.83,4.17,7.48.53,5.66-3.63Z" transform="translate(-118.37 -185.14)"/><path class="cls-1" d="M276.47,281.51c-1.64-5.76-3.25-11.68-3.6-17.74a34.79,34.79,0,0,1,2.86-16.28c4-9.09,10.21-17.89,9.3-28.53-.33-3.87-5.38-5.09-6.44-1-2.32,9.08,2.84,17.38,9,22.93,5.41,4.91,14,10,14.6,18.66.3,4.59,6.87,4.63,6.56,0-.6-9.12-6.52-15.25-12.75-20.51-5.23-4.41-13.19-10.73-11-19.17l-6.44-1c.89,10.4-6.35,19.16-9.77,28.28-4.45,11.86-1.91,24.42,1.44,36.18,1.26,4.41,7.59,2.53,6.33-1.91Z" transform="translate(-118.37 -185.14)"/><path class="cls-1" d="M145.91,355.06c-3.37-5.29-7.17-11.11-7.5-17.79-.35-6.95,2.52-13.51,1.39-20.51-.37-2.27-3.53-1.31-3.16,1,1.15,7.14-2.23,14.12-1.35,21.32.82,6.69,4.34,12.42,7.79,17.83a1.68,1.68,0,1,0,2.83-1.81Z" transform="translate(-118.37 -185.14)"/><path class="cls-1" d="M141.87,307.65a47.8,47.8,0,0,1,6.42,19,12.14,12.14,0,0,0,3.13,7.21c1.34,1.42,3.8,2.92,3.67,5.24s3.14,2.31,3.28,0c.15-2.65-1.39-4.6-3.09-6.26a19.59,19.59,0,0,1-2.53-2.69,9.88,9.88,0,0,1-1.29-4.46,50.58,50.58,0,0,0-6.75-19.83,1.69,1.69,0,1,0-2.84,1.82Z" transform="translate(-118.37 -185.14)"/><path class="cls-1" d="M175.44,339.77a7.59,7.59,0,0,0-.38-7.29c-1.4-2.35-3.64-3.73-5.69-5.28-4.37-3.3-7.92-7.72-11.43-12-1.41-1.73-3.72.82-2.32,2.55a84.7,84.7,0,0,0,10,10.92c1.72,1.47,3.71,2.63,5.35,4.21,1.26,1.21,2.59,3.25,1.61,5.1-1.07,2,1.76,3.82,2.83,1.82Z" transform="translate(-118.37 -185.14)"/><path class="cls-1" d="M201.62,329.91a106.77,106.77,0,0,1-.82-12.76,116.91,116.91,0,0,1,1.09-11.82c.86-7.36,1.17-14.9-2-21.67-1-2.05-3.81-.23-2.83,1.82,3.22,6.79,2.23,14.62,1.34,21.89a97.65,97.65,0,0,0,0,22.54c.23,2.28,3.52,2.3,3.28,0Z" transform="translate(-118.37 -185.14)"/><path class="cls-1" d="M216.21,323.26a33.61,33.61,0,0,0-2.05-15.57c-.91-2.33-2.22-4.27-1.77-6.9.4-2.39,1.15-4.64.46-7.07a1.65,1.65,0,1,0-3.16.95c.6,2.14-.45,4.39-.66,6.53-.26,2.6.74,4.67,1.73,6.94a30,30,0,0,1,2.17,15.12c-.24,2.3,3,2.28,3.28,0Z" transform="translate(-118.37 -185.14)"/><path class="cls-1" d="M223.13,300.3c0-6.58-4.45-11.61-8.57-15.82-1.54-1.58-3.86,1-2.31,2.55a40.16,40.16,0,0,1,5.2,6.11,13.37,13.37,0,0,1,2.4,7.16,1.64,1.64,0,1,0,3.28,0Z" transform="translate(-118.37 -185.14)"/><path class="cls-1" d="M241.62,279.72c-1.4-4.24-.48-8.69.24-13s1.36-9-.11-13.24c-.74-2.15-3.91-1.22-3.17,1,1.46,4.22.57,8.66-.15,12.94s-1.39,9,0,13.27a1.66,1.66,0,1,0,3.17-.95Z" transform="translate(-118.37 -185.14)"/><path class="cls-1" d="M261.05,276.09a88.6,88.6,0,0,0-6.85-16.18c-1.08-2-3.92-.17-2.83,1.82A83.31,83.31,0,0,1,257.89,277a1.67,1.67,0,0,0,2,1.26,1.84,1.84,0,0,0,1.14-2.21Z" transform="translate(-118.37 -185.14)"/><path class="cls-1" d="M284,275.46c-1-3.86.05-7.82.89-11.6.88-3.95,1.61-8.06.52-12.06a1.65,1.65,0,1,0-3.16,1c1.05,3.85,0,7.8-.84,11.58-.88,4-1.63,8.07-.57,12.08a1.65,1.65,0,1,0,3.16-1Z" transform="translate(-118.37 -185.14)"/><path class="cls-1" d="M299.13,272.29c.85-3.85-1.1-7.08-2.54-10.41a9.46,9.46,0,0,1-.81-3.43,3.13,3.13,0,0,1,1.06-2.8,1.94,1.94,0,0,0,0-2.54,1.57,1.57,0,0,0-2.32,0c-2.36,2-2.34,5.75-1.49,8.62a38.33,38.33,0,0,0,2,4.66,8,8,0,0,1,.95,4.94c-.5,2.25,2.67,3.21,3.17,1Z" transform="translate(-118.37 -185.14)"/><path class="cls-1" d="M316.56,292.42a33.22,33.22,0,0,1,1-14.77,30.9,30.9,0,0,1,3-6.75,56.7,56.7,0,0,0,3.74-6.63c.87-2.1-2-3.93-2.83-1.82a74,74,0,0,1-4.11,7.28,34.69,34.69,0,0,0-3.07,7.44,37.29,37.29,0,0,0-.88,16.21c.36,2.28,3.52,1.31,3.16-1Z" transform="translate(-118.37 -185.14)"/><path class="cls-1" d="M337.34,290.53c.08-6.69.07-13.38-.12-20.06a24.08,24.08,0,0,0-1.19-8,14,14,0,0,0-1.69-3.08c-.74-1.07-1.6-2.06-1.43-3.48.27-2.29-3-2.26-3.28,0-.32,2.69,1.45,4.43,2.67,6.48,1.43,2.38,1.56,5.28,1.64,8.05.19,6.68.2,13.37.12,20.06a1.64,1.64,0,1,0,3.28,0Z" transform="translate(-118.37 -185.14)"/><path class="cls-1" d="M353.78,281.43a51.32,51.32,0,0,0-7.14-16.31,1.61,1.61,0,0,0-2.24-.65,1.91,1.91,0,0,0-.59,2.47,48.57,48.57,0,0,1,6.81,15.45c.55,2.23,3.71,1.28,3.16-1Z" transform="translate(-118.37 -185.14)"/><path class="cls-1" d="M134.27,361.83a789.37,789.37,0,0,0-4.85,111.61q.39,13.92,1.26,27.82c.57,9,1,18,2.28,26.92,1.11,8,4.1,15.24,10.36,19.81,5.76,4.22,12.9,5.36,19.58,6.57a945.42,945.42,0,0,0,100.93,12.35c33.61,2.39,67.3,3.3,101,3.44,33.86.13,67.72-.53,101.57-1.27l12.43-.28a4.39,4.39,0,0,0,4.1-4.5l-.18-89.87,0-25.49a4.56,4.56,0,0,0-3-4.34q-39-11.66-77.57-25.1t-76.53-28.68q-38-15.24-75.36-32.23-18.45-8.4-36.75-17.23c-11.94-5.76-24-12.82-37.29-13.73-20.9-1.44-41.18,15.15-47.28,36.81a54.72,54.72,0,0,0-1.57,8.64,4.34,4.34,0,0,0,4.1,4.49c2.44,0,3.83-2.07,4.1-4.49,2.25-20.09,20.08-36.54,38.33-36.54,12.27,0,23.81,6.95,34.76,12.24q18.18,8.79,36.54,17.17,36.24,16.56,73.1,31.47t74.23,28.14q37.56,13.31,75.6,24.88l9.41,2.84-3-4.34.18,89.87.05,25.49,4.1-4.5c-33.18.75-66.36,1.49-99.54,1.56s-66.33-.51-99.44-2.42a979.39,979.39,0,0,1-98.51-10.3c-7.77-1.24-15.62-2.37-23.31-4.13-5.92-1.36-11.88-3.52-14.85-9.76a31.3,31.3,0,0,1-2.36-9.59c-.55-4.42-.83-8.89-1.17-13.33q-1.05-13.65-1.62-27.34a789,789,0,0,1,3-109c.45-4.55.93-9.08,1.45-13.62a4.33,4.33,0,0,0-4.1-4.49c-2.45,0-3.82,2.07-4.1,4.49Z" transform="translate(-118.37 -185.14)"/><path class="cls-1" d="M137.38,366.32c15.79-21.8,39.85-32.83,63.31-41.37,29.18-10.63,58.9-19.67,88.77-27.67,7.55-2,15.12-4,22.71-5.82A111.54,111.54,0,0,1,333.74,288c12.52-.48,24.22,3.3,33.64,12.52,8.4,8.23,14.48,18.77,20.24,29.26,6.67,12.16,13.19,24.22,21.2,35.41,9.28,13,19.64,25,29.73,37.18l32.37,39.16,7.95,9.63c3.55,4.3,9.34-2.08,5.8-6.36L451.75,405c-10.53-12.74-21.31-25.31-31.43-38.47-8.7-11.33-16-23.47-22.85-36.18-6.06-11.19-12.22-22.57-20.45-32.06-8.76-10.1-19.76-16.87-32.43-18.7-15.21-2.2-30.53,2.09-45.24,5.86q-46.78,12-92.62,27.91c-24.5,8.52-50.15,18.46-68.77,38.76a89.39,89.39,0,0,0-6.38,7.84,5,5,0,0,0,0,6.36c1.43,1.57,4.42,1.92,5.8,0Z" transform="translate(-118.37 -185.14)"/><path class="cls-1" d="M133.44,360.11c-5.45,12.27-6.88,25.79-7.18,39.29-.33,14.46-.12,29-.14,43.41l-.06,44.63c0,13.64-.68,28.1,3.81,41.08,4.09,11.83,12.95,22.9,24.91,24.72a4.22,4.22,0,0,0,5.05-3.15c.52-2.1-.66-5.19-2.87-5.53-9-1.37-15.82-9.1-19.07-18.13-4.34-12-3.64-25.43-3.63-38.09,0-27.78-.07-55.56.12-83.34.09-13.63.6-27.87,6.14-40.35a4.88,4.88,0,0,0-1.47-6.16,3.94,3.94,0,0,0-5.61,1.62Z" transform="translate(-118.37 -185.14)"/><path class="cls-1" d="M138.19,384A517.5,517.5,0,0,0,262.4,445.77a514.63,514.63,0,0,0,67.32,17.6c23.14,4.46,46.44,7.79,69.62,12,26.08,4.69,52.07,10.51,77.07,20.09,2.09.8,4.49-.92,5-3.15a4.64,4.64,0,0,0-2.86-5.53c-44.42-17-91.48-22-137.63-30.35C296,448.24,252.09,435,210.25,415.15a520.44,520.44,0,0,1-67.93-38.88c-4.5-3-8.62,4.73-4.13,7.77Z" transform="translate(-118.37 -185.14)"/><path class="cls-1" d="M140.76,481.82c43.6-7,86.15,12,127.08,25.57,21.52,7.14,43.35,13,65.84,14.72,23.57,1.78,47.17-.19,70.73-1,25.88-.91,52.1-.4,77,8.34,5,1.77,7.19-6.91,2.18-8.67-45.92-16.13-94.45-5.26-141.57-7.17-22.5-.91-44.23-6-65.79-12.85s-42.64-15.14-64.37-21.2c-24-6.69-48.63-10.35-73.26-6.39-2.19.35-3.4,3.39-2.86,5.53a4.17,4.17,0,0,0,5,3.14Z" transform="translate(-118.37 -185.14)"/><path class="cls-1" d="M134.78,489.41c-2.16,19.39,3.38,37.56,14.18,52.8l4-16.54,4.49,2.64-11.09,12.17c49.55,21.23,101.12,28.58,154.07,27.62,55.67-1,111.34-3,167-4.58,7-.2,11.08-8.21,7.79-14.89-3.06-6.21-3.74-12-3.05-19l-13.57,8.54c2.82,2.38,2,7.49-.12,9.86l12.76,14c7.83-9.78,7.29-24-.86-33.59-9.25-10.86-23.42-10.76-35.93-10.57-33.37.52-66.79,1.72-100.17,1.6a144.87,144.87,0,0,1-46.47-7.35c-15.66-5.26-31-11.52-46.84-16.08-31.09-8.92-62.94-14-94.7-19.16l-2.4,19.43a112.16,112.16,0,0,1,60.48,14.41l4.55-18.44-60-.27c-8.47,0-11,10.52-6.38,16.89,33.48,45.83,86.24,47.31,135.45,44.86,28.56-1.42,57.12-2.92,85.68-4.27s57.59-2.06,85.77,4.91l2.4-19.44c-52.9.93-105.95-6.15-158.21-14.57-24.92-4-49.78-9.13-73.83-17.46-18.64-6.46-39.34-15-56.06.93-4.63,4.4-2.7,12.27,1.82,15.54a138.72,138.72,0,0,0,42.66,21.07,135.55,135.55,0,0,0,23,4.4c7.75.84,14.9,1.8,19.41-6.48,7.13-13.1-2.57-28.12-14.62-31.31-7.54-2-15.54-.88-23.19-.49l-28,1.43,6.38,16.89c9.18-8.92,17.66-6.31,28.42-4,9.76,2.11,18.89-3.45,20.1-14.76,2.9-27.39-30.21-24.66-45.87-25-11.61-.27-11.61,19.52,0,19.79,7.39.16,15.35-.58,22.67.63.37.06,8.51,3.1,5.14-.55-1.55-1.68-6.55-2-8.66-2.28-12.84-1.94-25,2.85-34.56,12.17-5.78,5.62-1.26,17.28,6.38,16.89l29.57-1.51c4.27-.22,8.64-.75,12.92-.54,1.78.09,8.77,1.41,7.29,2.88l6.38-2.89c-23.86-.9-46.37-9-66.27-23.44l1.82,15.54c7-6.66,18-2.9,25.89-.33,10.16,3.32,20.13,7.16,30.41,10.06,23.33,6.58,47.17,10.66,71,14.19,49.06,7.25,98.44,13.85,148,13,9.9-.17,12.6-16.91,2.4-19.43-26.19-6.48-52.94-7.11-79.67-6.1-28,1.06-55.91,2.72-83.86,4.12-48.19,2.41-101.92,7.41-135.41-38.43l-6.38,16.89,60,.27c8.65,0,12.69-13.87,4.56-18.44-21.63-12.16-45.28-18.14-69.59-17.11-9.6.41-12.92,17.74-2.39,19.44,27.67,4.46,55.39,8.93,82.65,15.9,26.77,6.85,52.39,19.91,79.48,24.9,27.93,5.14,57.27,2.13,85.45,1.66l42.15-.7c6.43-.11,13.87-1.07,20.15.88,2.56.79,10.55,5.15,7.12,9.43-7.6,9.49,4.62,23.25,12.76,14,10.91-12.4,8.48-30.81-3.53-40.94-6.06-5.11-12.93,2.1-13.58,8.54a52.71,52.71,0,0,0,5.51,29l7.79-14.89c-54.59,1.6-109.19,3.38-163.79,4.52-52.63,1.09-103.2-5.74-152.48-26.85-7-3-12.14,5.59-11.09,12.17,1.43,8.94,10,14.09,17.7,11.18,6.93-2.61,8.21-10.57,4-16.53-7.94-11.2-10.44-25-8.9-38.81,1.41-12.61-16.64-12.5-18,0Z" transform="translate(-118.37 -185.14)"/><path class="cls-1" d="M237.63,538.3a177.35,177.35,0,0,1,31.42.75c4.88.55,9-4.94,9-9.89.05-5.81-4.2-9.35-9-9.9a177.35,177.35,0,0,0-31.42-.75c-11.54.76-11.62,20.55,0,19.79Z" transform="translate(-118.37 -185.14)"/><path class="cls-1" d="M176.24,332.28A46.25,46.25,0,0,0,140,351.86c-3.9,5.44-8.29,12.84-6.29,20.13,2.25,8.22,10.51,11.15,17.07,7.34,10.26-6,1.15-23.05-9.11-17.08l9.44,7,.93-1.85c.92-1,1.68-2.84,2.55-4a30,30,0,0,1,6.19-6,27.63,27.63,0,0,1,15.5-5.29c11.59-.36,11.63-20.15,0-19.79Z" transform="translate(-118.37 -185.14)"/><path class="cls-1" d="M142.32,377.18a83.69,83.69,0,0,0,33.1,23.65c11.56,4.5,25.26,5.66,34.78,14.88l10.93-15.55A113.61,113.61,0,0,0,201.67,387c-5.58-3-14.21.47-13.57,8.55,1.4,17.73,12.61,25.79,27.76,27.81a191,191,0,0,1,50.82,14.12V418.38c-3.73,1.45-6.6,1.87-10.47.82-11.27-3.06-16.08,16-4.8,19.08a31,31,0,0,0,20.07-.81c8.77-3.41,8.3-15.5,0-19.09a191.9,191.9,0,0,0-35.62-11.57c-5.67-1.22-11.37-2.09-17.1-2.89-5.23-.72-12-1-12.62-8.38l-13.57,8.54A112.57,112.57,0,0,1,212,417.25c8.11,6.8,18.57-8.14,10.93-15.54-9.65-9.35-21.21-13.12-33.38-16.83-13.47-4.12-24.78-10.46-34.49-21.69-8-9.26-20.75,4.75-12.76,14Z" transform="translate(-118.37 -185.14)"/><path class="cls-1" d="M250,430.81a707.1,707.1,0,0,0,112.31,34.46c18.61,4,37.36,7.25,56.18,9.78,15.77,2.12,35.63,1.46,48.8,12.73,6.57,5.63,17.84.78,15.08-9.62a76.41,76.41,0,0,1-2.51-23.78c.26-5.78-4.37-9.31-9-9.9C417.58,437.73,363.43,433.37,311,420.6a417.9,417.9,0,0,1-73.67-25.92c-12.63-5.73-25.08-11.93-37.49-18.21-11.47-5.8-24.44-10.82-34.14-19.9v14c4.68-5.32,11.63-1,16.21,2.29,7.1,5.12,13.59,10.83,21.13,15.27,15.19,8.94,31.34,16.32,47.22,23.64,31.71,14.64,65,26.2,99.77,24.83,10.17-.4,12.25-16.11,2.4-19.44a1461.83,1461.83,0,0,1-152.26-61.1l-6.95,18.08c22.21,6.37,42.7,17.32,63.1,28.66,20.67,11.5,41.47,22.48,63.14,31.58a462.87,462.87,0,0,0,66.9,22.29c20.09,5,44,6.52,60.57,21.38,8.92,8,21.76-5.93,12.76-14-16.88-15.13-37.34-19.29-58.13-24A462.16,462.16,0,0,1,330,417.64c-44.92-18.18-85.44-49.25-131.94-62.58-9.49-2.72-16.64,13.54-6.95,18.09a1505.87,1505.87,0,0,0,156.57,63.1l2.4-19.44c-38.5,1.51-74.73-14-109.29-31-16.81-8.25-32.51-16.75-47.58-28.4-12.06-9.32-28.76-13.83-40.22-.82-3.19,3.62-3.77,10.47,0,14,10.37,9.7,22.73,15.35,35,21.57s24.39,12.26,36.74,18c25.48,11.86,51.48,22,78.5,28.79,54.88,13.77,111.78,18.25,167.61,25.33l-9-9.89a95.85,95.85,0,0,0,3.15,29L480,473.79c-13.78-11.79-29.7-14.67-46.67-16.69-20.17-2.39-40.22-5.49-60.16-9.62a706.08,706.08,0,0,1-118.43-35.75c-10.93-4.36-15.64,14.76-4.79,19.08Z" transform="translate(-118.37 -185.14)"/><path class="cls-1" d="M140.75,413.9c15.91-1.34,31,3.39,46.2,7.75,14.22,4.06,28.46,8.08,42.65,12.29,29.14,8.65,58.12,20.55,88.63,21.2,11.61.25,11.61-19.54,0-19.79-30.7-.65-60.39-13.64-89.77-22.24-14.15-4.14-28.32-8.17-42.49-12.2-14.82-4.21-29.79-8.1-45.22-6.8-11.51,1-11.6,20.76,0,19.79Z" transform="translate(-118.37 -185.14)"/><path class="cls-1" d="M153.91,390.64l.44-10.11-17.72,2.63a97,97,0,0,1,3.91,17.18c.56,4.22,5.09,7.27,8.69,7.27,4.09,0,7.47-3.11,8.7-7.27.84-2.81,1.58-5.69,2.53-8.45,1.72-5-1.91-10.85-6.3-12.18-5.07-1.52-9.37,1.9-11.1,6.91-.95,2.77-1.69,5.65-2.52,8.46h17.39A95.3,95.3,0,0,0,154,377.9c-3.4-10.41-17.22-8.85-17.72,2.63l-.43,10.11c-.24,5.34,4.31,9.89,9,9.89,5.08,0,8.79-4.53,9-9.89Z" transform="translate(-118.37 -185.14)"/><path class="cls-1" d="M472,448.84q-63.33-6.82-126.3-17-62.78-10.16-125-23.64-35.07-7.59-69.93-16.23c-2-.51-2.93,2.95-.87,3.47q62.28,15.42,125.2,27.52Q337.79,435,401,443.73q35.46,4.88,71,8.7c2.1.23,2.09-3.37,0-3.59Z" transform="translate(-118.37 -185.14)"/><path class="cls-1" d="M473.53,439.42c-34.48,4.35-69.09-.61-102.87-8.32-34.34-7.83-68.14-18.35-102.68-25.17-19.12-3.78-38.47-6.41-57.92-6.77-2.11,0-2.12,3.56,0,3.6,35,.65,69.36,8.7,103.29,17.5S381,438.69,415.63,442.77a239.15,239.15,0,0,0,57.9.24c2.08-.26,2.1-3.86,0-3.59Z" transform="translate(-118.37 -185.14)"/><path class="cls-2" d="M472.25,453.66c-13.29.27-26.2-3.3-38.77-7.73-12.82-4.51-25.42-9.61-38.46-13.35-13.35-3.83-26.88-6.76-40.42-9.61q-21.09-4.44-42.17-8.84l-84.56-17.74-84.16-17.65c-2.73-.57-6.33-.87-8.23-3.4a7.9,7.9,0,0,1-.9-6.55c1.39-5.67,5.72-8.71,10.78-9.67,10.19-1.93,22.53,2.35,30.68-6.95a14.13,14.13,0,0,0,3.14-6.22,1.71,1.71,0,0,0-2.41-2l-23.21,10.93-5.24,2.47c-1.7.8-3.85,2.34-5.76,2.22-4-.26,1-5.66,2.18-6.5,3.1-2.22,7-3.46,10.45-5s7.12-3.13,10.7-4.66q11.09-4.71,22.31-9a663.6,663.6,0,0,1,90.86-27.61q26.07-5.91,52.51-9.67c2.06-.29,2.09-3.9,0-3.6a662.26,662.26,0,0,0-100.34,22.29q-24.75,7.58-49,17.09-11.91,4.68-23.67,9.83-6.06,2.64-12.07,5.42a16,16,0,0,0-7.25,5.76c-1.62,2.48-2.32,6,.18,8.1,3.21,2.71,7.4-.08,10.52-1.55L178.43,347,176,345c-1.31,5.63-6.39,8.35-11.2,9.47-6,1.38-12.15.11-18.17.86-5.09.63-9.8,2.52-12.89,7.19-2.43,3.67-3.74,8.84-1.93,13.14,2.51,5.93,9.54,6.26,14.63,7.32l21.74,4.56,43.09,9,86.58,18.16,43.49,9.12c14,2.94,28.07,5.76,42,9.28a388.19,388.19,0,0,1,40.3,13c12.56,4.68,25.29,9.22,38.56,10.68a76.9,76.9,0,0,0,10.06.45c2.11,0,2.12-3.64,0-3.6Z" transform="translate(-118.37 -185.14)"/><path class="cls-2" d="M139.81,353.67a27.93,27.93,0,0,0-6.39,10.93,1.85,1.85,0,0,0,1.15,2.22,1.69,1.69,0,0,0,2-1.26c.14-.45.3-.9.46-1.35.06-.18-.08.19,0-.11,0-.11.09-.21.13-.31s.19-.46.3-.69a26.07,26.07,0,0,1,1.32-2.58c.24-.4.49-.79.75-1.18l.18-.27c0-.05.25-.35.07-.11l.39-.53a23.75,23.75,0,0,1,1.9-2.21,1.94,1.94,0,0,0,0-2.55,1.57,1.57,0,0,0-2.32,0Z" transform="translate(-118.37 -185.14)"/><path class="cls-2" d="M148.94,374c8.67-12.94,23.89-17.9,37.16-22.69l52.28-18.82-8-15c-11.25,12.29-29.86,14.67-44.09,21.23A199.41,199.41,0,0,0,142.92,366c-8.35,6.87-.18,22.49,8.27,15.54,14.51-11.94,30.34-22,47.35-29,15.16-6.24,31.57-9.4,43.46-22.4,5.62-6.14,0-17.89-8-15-19.83,7.14-39.78,14-59.51,21.47-15.53,5.9-29.79,13.47-39.73,28.31-6.26,9.33,8,18.32,14.16,9.08Z" transform="translate(-118.37 -185.14)"/><path class="cls-2" d="M146.58,380.7q77.19,10.11,153.55,26.44,37.51,8,74.75,17.53c21.77,5.56,48.17,9.08,65.59,25.79l9.94-14.13A283.51,283.51,0,0,0,350.67,398c-8.08-1.42-13.6,7.91-8,15a42.66,42.66,0,0,0,18.91,13.68L366,409.38,173.32,364.19l5.73,11.07c.78-5.38,8.74-6.59,12.78-8.07,6.72-2.46,13.41-5.29,20.25-7.32,15.1-4.48,29.23,6.25,42.55,13l82.71,41.73,6.32-16.44a453.34,453.34,0,0,0-75.42-25c-12.59-3-25.28-5.32-38-7.19s-25.78-2.95-37.46-9.14l-2,16.44c9.15-3.81,19.75-1.74,25.75,7.33L223.61,367q-17.93.75-35.76,2.76c-7.42.83-10.38,9.06-5.8,15.35,6.21,8.56,16.95,9.55,26.07,11.59l38.3,8.54,75,16.74L473,455.83c7.5,1.67,14.44-8.57,8-15l-49.15-49.14c-7.78-7.79-19.41,4.9-11.59,12.72l49.15,49.14,8-15L332.15,406.07l-71.8-16-35.1-7.83c-6.39-1.43-12.77-2.84-19.15-4.28-4.56-1-9.4-1.32-12.46-5.53l-5.79,15.36q17.84-2,35.76-2.75c5.66-.24,10.94-7.7,7.08-13.54-10.09-15.25-27.8-22.46-44.27-15.6-5.94,2.47-8.9,12.75-1.95,16.44,23.31,12.38,51.37,11.74,76.44,17.46a453.77,453.77,0,0,1,78.39,25.72c8.58,3.69,14.76-12.19,6.32-16.45-34.28-17.29-68.45-34.9-102.85-51.89-6.85-3.38-13.86-6.63-21.48-6.86-8.63-.27-17,3.38-25,6.32-11.53,4.23-30.73,7.78-33.06,23.87-.66,4.57,1,10,5.73,11.06L361.6,426.73c10.36,2.43,14.33-13.56,4.36-17.35-4.81-1.83-8.36-4.86-11.68-9.06l-8,15a271.18,271.18,0,0,1,95.82,36.5c7.85,4.85,17.16-7.19,9.94-14.12-18.22-17.47-42.2-22.48-65.08-28.42q-39.53-10.26-79.38-18.86-80-17.25-161-27.75c-10.46-1.37-10.37,16.63,0,18Z" transform="translate(-118.37 -185.14)"/><path class="cls-2" d="M463,449.64c.72,6.36-12-4.41-13.26-5.46a163.77,163.77,0,0,0-15.48-11.95c-10.54-7-22.35-12.27-34.77-12.93-13.5-.71-24.39,6.73-37.1,9.93-13,3.29-19.79-8.41-29.46-15.53-20.73-15.27-45.57-5.85-68.45-6-12.35-.07-23.1-3.12-30.46-14.54-6.84-10.6-14.75-17.13-27-17.45-14.52-.38-26.36,8.84-39.91,12.78-5.39,1.57-13,2.35-17.53-2.13-2.06-2.05-4.11-10.4.75-10.58,10.52-.39,10.57-18.38,0-18-12.11.45-20,12.14-19.43,25,.63,14.41,12.6,23.08,24.66,24.51,16.19,1.93,28.82-9,43.91-12.76,7.79-1.94,14.79-.88,19.69,6.48,4.27,6.41,8,12.2,14.32,16.47,11.57,7.88,26.24,8.89,39.47,7.84,14.87-1.19,31.53-6,45.95.36,13.29,5.84,20.16,20.81,35.6,22.15,15.93,1.38,29.2-11.62,45-10.6,19.69,1.28,32.73,17,48.4,27.7,6.11,4.17,13.51,6.31,20.41,3.3a18.31,18.31,0,0,0,11.1-18.65c-1.29-11.34-17.7-11.48-16.4,0Z" transform="translate(-118.37 -185.14)"/><path class="cls-2" d="M153.56,393.47a26.23,26.23,0,0,0,19.55.25,9.36,9.36,0,0,0,5.73-11.07c-1.11-4.43-5.89-7.9-10.09-6.28-4,1.57-6.82,1.45-10.83-.25s-9,1.93-10.08,6.28c-1.28,5.09,1.58,9.3,5.72,11.07Z" transform="translate(-118.37 -185.14)"/><path class="cls-2" d="M147.1,454.81c-11.19,6.22-11.16,23.44-2.07,31.72,12.84,11.7,27.31,1.2,40.6-2.66a30.38,30.38,0,0,1,21.86,2c7.83,3.9,12.12,11.29,18.22,17.46,9.44,9.55,21.58,12.72,34.16,12.52s25.32-3.47,38.07-2.88c5.08.24,10.27,1.25,14.65,4.2,6.65,4.47,10.81,11.63,18.24,15,13.74,6.3,28.47.41,41.6-4.92,16.79-6.82,32.9-10.24,50.35-3.54,14,5.37,29.93,19.33,44.43,7.29,10.44-8.68,12.76-25.33,1.42-34.13-8.63-6.71-16.83,8.89-8.28,15.53-1-.75-.3.85-1.4,2.41a5.72,5.72,0,0,1-3.67,2.77c-5.88,1.6-13.52-4.21-18.51-6.78-11.29-5.8-23.24-9.18-35.77-9-13,.21-24.64,4.8-36.7,9.61-11.66,4.66-23.62,9.41-33.7-1.05-15.68-16.27-33.3-16.4-53.74-14-9.36,1.09-19.49,2.84-28.77.34-11.13-3-16.3-14.4-25-21.49a46.31,46.31,0,0,0-35.94-10c-7.46,1.12-13.72,4.89-20.8,7.31-2.65.9-5.58,1.84-8.36,1.12-1.58-.41-4.71-2.2-2.59-3.38,9.42-5.23,1.13-20.76-8.28-15.54Z" transform="translate(-118.37 -185.14)"/><path class="cls-2" d="M461.82,510.13c-24.51-5.91-49.26-13.6-74.18-17-20.18-2.75-42.69,1.15-55.94,19.73h11.6c-11.44-12.65-26.11-21.68-42.13-25.05a72.39,72.39,0,0,0-23.66-1.22c-7.95,1-16.22,3.69-24.27,2.72-9.09-1.1-11.77-10.26-17.8-16.31-5.6-5.6-12.59-7.73-19.95-8.68-20.12-2.62-40.9-1.81-61,.13-10.44,1-10.53,19,0,18a304.84,304.84,0,0,1,56.27-.62c9.43.85,13.41,3.84,19.2,11.88,4.36,6.06,9.66,10.64,16.6,12.54,14,3.83,28.28-2.82,42.39-2.08,16.25.85,31.4,8.85,42.78,21.43,2.84,3.14,8.86,3.83,11.6,0,12.49-17.52,33.33-16.92,51.52-13.09,21,4.42,41.79,10,62.64,15,10.29,2.48,14.68-14.86,4.36-17.35Z" transform="translate(-118.37 -185.14)"/><path class="cls-1" d="M418.72,380.4c14.76,13.66,29.59,27.24,44.27,41,6.64,6.23,13.81,13,15.48,22.88,1.7,10.05-2.34,19.6-7.79,27.42-3.85,5.52,4.69,10.9,8.49,5.45,11.45-16.41,13-37.38.28-53.46-7.22-9.11-16.55-16.45-24.93-24.21l-28.84-26.72c-4.81-4.45-11.8,3.15-7,7.64Z" transform="translate(-118.37 -185.14)"/><path class="cls-1" d="M476.62,459.77c.62,16.88,2.05,34,1.28,50.92s-4.13,33.5-5.31,50.35c-.49,6.93,9.35,6.89,9.84,0,1.18-16.85,4.55-33.45,5.31-50.35s-.66-34-1.28-50.92c-.25-6.92-10.1-7-9.84,0Z" transform="translate(-118.37 -185.14)"/><path class="cls-3" d="M237.86,265.42c-14.25,18.38-24.82,52.35-.41,67.46,18.42,11.4,48.35,12.47,61.71-8.36,12.73-19.86,7.95-51.85-12.3-62.9-17.8-9.71-52.79-7.27-55.2,20.08-.61,6.91,9.23,6.87,9.84,0,1.75-19.91,34.5-15.9,44.52-8.13,12.79,9.92,13.63,36.36,2.37,48.2-11.51,12.1-33,9.94-46,1.79-18.24-11.46-7.78-37.37,2.4-50.51,4.08-5.26-2.85-12.93-7-7.63Z" transform="translate(-118.37 -185.14)"/><path class="cls-3" d="M236.08,277.85l-3.54,15.28a5.24,5.24,0,0,0,6.05,6.64c7.49-1.47,11.51-9.75,19.25-11.64,9.94-2.43,19.23,1.44,27.36,7.57,3.49,2.63,8.56-1.75,7.22-6.1-4.93-16-12.45-31.5-29.83-31.93-14.58-.36-33.18,8.17-33.09,26.56a4.93,4.93,0,1,0,9.84,0c-.06-12.92,18-17.67,27.31-15.24,9.85,2.56,13.42,14.16,16.29,23.48l7.22-6.09c-8.36-6.31-18.11-10.45-28.4-9.74A33.38,33.38,0,0,0,249,280.1c-4.13,2.06-8.79,8.42-13.06,9.26L242,296l3.54-15.28c1.56-6.74-7.92-9.61-9.49-2.87Z" transform="translate(-118.37 -185.14)"/><path class="cls-3" d="M240.7,286.75c7.05-10.5,19.17-20.29,31.63-15,10.79,4.57,15.78,22.38,17.12,33.93,1,8.24-6.34,11.65-12.72,14a45.69,45.69,0,0,1-16,2.87c-5.75,0-11.74-.85-16.83-4-4.71-2.89-12.89-12.12-9.53-18.95l-5.55,2.48c1.27.21,2.82,2.29,4.12,2.92a12,12,0,0,0,6.94,1c5.62-.68,10.6-4.75,15.93-6.6S282,292.74,280.93,305c-.68,7.63-18,8.44-22.4,8.29a23.75,23.75,0,0,1-11.39-3.23,25.07,25.07,0,0,1-5.27-4.13q-3.78,4.88,1.2,4c5.68,1.25,12.92-2.88,18-5,2.83-1.18,7-3.58,10.11-3.16,7.29,1-2.58,2.39-3.63,2.76-4,1.38-6.93,4-7.84,8.52-.81,4,2.29,7.68,6,6.64l6.9-1.91c6.23-1.72,3.52-11.6-2.62-10.41-4.71.92-15,4.45-19.79,2.44l3.44,3.77-.33,2.19-5.56,2.48a20.19,20.19,0,0,0,10.71.38c3.83-1,9.09-6.7,12.65-6.19v-10.8c-6.84-.75-21.82-6.32-24.18,4.31-.39,1.74-.08,4,1.26,5.25l1,.88c4.86,4.36,11.87-3.23,7-7.63l-1-.88,1.27,5.25.34-1.55L253.4,311c4.34-2,13.22.9,17.78,1.4,6.36.7,6.14-9.91,0-10.8-8.11-1.16-12.22,8.53-20.74,6.2-2.32-.64-4.22.49-5.56,2.48a6.87,6.87,0,0,0,3.79,10.33c6.6,2,17.39-1.58,24-2.87l-2.62-10.41-6.89,1.91,6.05,6.64c.31-1.57,10-2.7,11.95-4.68a11.18,11.18,0,0,0,2.34-12c-4.08-11-15.76-8.43-23.76-5.26-6.94,2.75-11.9,4.55-19.31,4.88-3.18.14-6.59.15-8.53,3.47-5.12,8.77,9.58,17.14,15,19.35,12.89,5.3,53.77,1.09,42.19-24.15-4.76-10.38-15.79-12.23-25.35-10.91a56.75,56.75,0,0,0-16.73,5c-3.46,1.63-6.91,4.55-10.71,3.1-1.94-.74-2.42-2.61-4.83-3-2.13-.35-4.44.21-5.56,2.48-8.8,17.89,10.62,35.33,24.79,38.2a53.35,53.35,0,0,0,28.68-2.29c6.88-2.56,17-7.59,19.94-15.56,3.17-8.64-2.74-22.92-5.72-30.94-3.24-8.71-7.35-16.59-15.34-20.83-17.74-9.42-35.58,2.93-46,18.52-3.76,5.6,4.78,11,8.49,5.44Z" transform="translate(-118.37 -185.14)"/><path class="cls-3" d="M250.66,268.28c-.26-20.65,1.88-43.2-8.75-61.5-9.69-16.68-27-21.24-44.09-21.61V196c2.24-.06,13.79,1,4.79-7.64a4.75,4.75,0,0,0-6-.84c-6.14,3.74-6.53,12.94-.77,17.45a12.6,12.6,0,0,0,10,2.1c6.85-1.18,11.88-4.31,19.19-3.41,6.28.77,6.23-10,0-10.79a32.31,32.31,0,0,0-10.43.27c-3.43.67-10.25,2-13.07,3.7l-6-.85c4.28,4.12,11.83,6.77,14.58-.93,3.44-9.61-6.88-10-12.41-9.85-6.32.18-6.34,10.65,0,10.79,15.79.34,31.09,4.54,38.18,21.53,6.58,15.78,4.61,33.94,4.82,50.79.09,6.94,9.93,7,9.84,0Z" transform="translate(-118.37 -185.14)"/><path class="cls-1" d="M139.13,356.66c-5.19,1.54-10-2.58-12.15-7.48-2.72-6.08-2.39-13.79-1.48-20.3,1.06-7.55,3.63-14.35,6.44-21.28s4.9-13.65,5-21.17a48.39,48.39,0,0,0-5.33-22.85c-1.83-3.56-7-1.17-6,2.77,4.9,19.67,21.19,31.08,35.48,42.13a127.67,127.67,0,0,1,10.64,9c3.2,3.1,6.92,6.67,8.78,11s-.58,7.71-3.82,10.25a108.64,108.64,0,0,1-12.08,8c-9.39,5.51-19.61,9.6-30.3,10.43-4.19.32-4.22,7.52,0,7.19,10.43-.8,20.37-4.25,29.75-9.24a129,129,0,0,0,13.19-8.19c3.74-2.63,7.72-5.56,9.58-10.18,4.37-10.87-6.58-21-13.38-27.06C166,303,157.6,297.57,150.05,290.93c-8-7-15.33-15.46-18.08-26.49l-6,2.77a40.82,40.82,0,0,1,4.36,21.11c-.48,7.93-3.88,14.9-6.67,22.07a76.2,76.2,0,0,0-5.19,23.23c-.43,7.35.25,15.5,4.19,21.73s11.15,10.34,18.21,8.25c4.07-1.2,2.34-8.14-1.75-6.94Z" transform="translate(-118.37 -185.14)"/><path class="cls-1" d="M191.76,332.33a206,206,0,0,1-1.16-23.43c.2-7.78,1.77-15.52,1.36-23.32-.75-14.13-9.49-24.7-13.15-37.77l-5.48,3.5a61.88,61.88,0,0,0,27.76,18.74c4.65,1.53,9.58,2.74,12.54,7.33s4.74,9.53,9.11,12.68c3.53,2.56,6.82-3.67,3.31-6.21-3.71-2.68-5.25-8.14-8-11.85-3.36-4.64-8.35-6.65-13.37-8.28A57.42,57.42,0,0,1,178,246.22c-2.23-2.61-6.44.09-5.48,3.5,3.5,12.52,12.48,23.22,12.94,36.7.26,7.52-1.19,15-1.39,22.48a206,206,0,0,0,1.16,23.43c.17,1.94,1.39,3.6,3.28,3.6a3.48,3.48,0,0,0,3.28-3.6Z" transform="translate(-118.37 -185.14)"/><path class="cls-1" d="M189.8,337.57c7.69,1,15.92,1.78,23.11-2.08a11.18,11.18,0,0,0,4.07-4c.69-1.08,1-1.1,2.18-1.08,3.21.06,6.25.53,8.76-2.19,3-3.26-1.63-8.34-4.64-5.09-.31.34-1.46.25-2.26.2a17.79,17.79,0,0,0-3.86,0,7.07,7.07,0,0,0-4.24,2.2c-1,1.13-1.53,2.64-2.81,3.46-2.73,1.77-6.39,2.14-9.48,2.21a72.72,72.72,0,0,1-10.83-.82c-1.77-.22-3.28,1.82-3.28,3.6a3.54,3.54,0,0,0,3.28,3.6Z" transform="translate(-118.37 -185.14)"/><path class="cls-1" d="M308.09,275.6c-1.56-10.07,7.4-18.48,11.63-26.32,4.94-9.17,5.86-19.87,6.63-30.27l-6.45,1c1.46,9.6,4.64,18.34,10.89,25.4,5.86,6.61,13.22,11.35,19,18.08,4.74,5.53,8.6,13.75,5.71,21.4s-11.38,7.91-17.8,7.93a81,81,0,0,0-14.17.84,46.91,46.91,0,0,0-7.31,1.94c-1.19.43-2.37.91-3.53,1.43s-2.7,1.65-3.94,1.49l1.66.49.59,2-.84,1.59.26-.29c2.95-3.33-1.69-8.42-4.64-5.09a5.33,5.33,0,0,0,0,7c2.08,2.44,5,1.61,7.38.44a43.48,43.48,0,0,1,15-4.37c8.66-.82,18.19,1.29,26.13-3.62s10.32-16,7.56-25.25c-3.06-10.25-11.06-17-18.45-23.44-4.16-3.62-8.47-7.41-11.47-12.28-3.23-5.25-4.71-11.36-5.65-17.55a3.26,3.26,0,0,0-3.6-2.57,3.55,3.55,0,0,0-2.85,3.53A116.49,116.49,0,0,1,318,234.5,43.17,43.17,0,0,1,312.1,249c-5.51,8.72-12.1,17.16-10.34,28.55a3.29,3.29,0,0,0,4,2.51c1.85-.56,2.58-2.5,2.29-4.43Z" transform="translate(-118.37 -185.14)"/><path class="cls-2" d="M142.13,337.49a24.79,24.79,0,0,0,.91,12.9,1.63,1.63,0,0,0,3.22-.48,7.4,7.4,0,0,0-1.41-4.23c-.6-.92-1.64-2.1-1.75-3.17l-3.23.48a22,22,0,0,0,5.78,9.92,1.58,1.58,0,0,0,2.58-.36c1-2.29.16-4.44-.83-6.53a14.94,14.94,0,0,1-1.47-6.36l-3.23.47a32.39,32.39,0,0,0,7.47,13.36c1.23,1.32,3,0,2.74-1.75-.88-5.15-3.74-9.56-4.72-14.68L145,338c1.09,4.05,3.52,7.35,6.15,10.34,1.3,1.48,3.51-.41,2.58-2.18-1.62-3.07-3.34-6.31-3.3-10l-3,.91a38.38,38.38,0,0,0,5.36,8.35c1.28,1.52,3.51-.43,2.58-2.18L151,335.17l-2.58,2.18a2.93,2.93,0,0,0,1.35.85,1.7,1.7,0,0,0,2.07-1.74,4.72,4.72,0,0,0-2.12-4.14,1.65,1.65,0,0,0-2.46,1.56c.26,2.34,2.12,3.9,3.42,5.65a51.83,51.83,0,0,1,3.56,5.51c1.12,2,4,.16,2.84-1.82a61.45,61.45,0,0,0-3.34-5.21c-.55-.78-1.12-1.54-1.71-2.29-.32-.41-.66-.81-1-1.22a4.58,4.58,0,0,1-.35-.42c-.06-.09-.19-.5-.15-.2l-2.47,1.55a1,1,0,0,1,.49,1l2.08-1.73.1.07c-1.32-1.41-3.52.39-2.58,2.18l4.32,8.13,2.57-2.18a35,35,0,0,1-4.85-7.63c-.77-1.63-3-.8-3.06.91,0,4.31,1.83,8.16,3.74,11.79l2.58-2.18c-2.23-2.54-4.38-5.31-5.3-8.76-.61-2.23-3.6-1.3-3.17,1,1,5.12,3.85,9.53,4.72,14.68l2.75-1.75a28.52,28.52,0,0,1-6.62-11.77,1.63,1.63,0,0,0-3.22.48,18.58,18.58,0,0,0,1.11,6.28c.35.93.78,1.81,1.19,2.71.26.56.73,1.46.44,2.08l2.58-.36A18.34,18.34,0,0,1,143,342a1.66,1.66,0,0,0-1.8-1.29,1.72,1.72,0,0,0-1.42,1.77,9,9,0,0,0,1.68,4.22c.67,1,1.51,2,1.48,3.18l3.22-.48a21.16,21.16,0,0,1-.91-11,1.87,1.87,0,0,0-1.14-2.21,1.65,1.65,0,0,0-2,1.26Z" transform="translate(-118.37 -185.14)"/><path class="cls-2" d="M140.49,353.13a63.72,63.72,0,0,1-4-8.24c-.68-1.72-3-.74-3.05.91a20.89,20.89,0,0,0,2.62,10.55l1.42-2.7a4.39,4.39,0,0,1-3.63-1.43l-2,2.82a15.33,15.33,0,0,0,5.81,2.92,15.34,15.34,0,0,0,6.09-.54,64.42,64.42,0,0,0,12.56-4.35,69.89,69.89,0,0,0,21.44-15.58c1.53-1.61-.8-4.16-2.31-2.55a67.29,67.29,0,0,1-19.15,14.25,61.41,61.41,0,0,1-10.78,4.09,24.87,24.87,0,0,1-6,1.22c-2.28,0-4.14-1.26-6-2.56-1.57-1.11-3.34,1.42-2,2.82a7.53,7.53,0,0,0,6,2.49,1.83,1.83,0,0,0,1.42-2.71,17.17,17.17,0,0,1-2.18-8.74l-3.06.9a62,62,0,0,0,4,8.25c1.12,1.95,4,.15,2.83-1.82Z" transform="translate(-118.37 -185.14)"/><path class="cls-2" d="M164.22,339.66c-.93-.17-1.44-1.59-1.91-2.37l-1.92-3.2-4.12-6.84-2.57,2.18,9.46,9.62a1.56,1.56,0,0,0,2.32,0c1.4-1.69.44-3.46-.46-5.12l-3.42-6.26L159,329.85q3.3,3.82,6.52,7.72a8.45,8.45,0,0,0,.83,1l.71-1.4-.19-.16c-.22-.57-.68-1.1-.91-1.71a24.14,24.14,0,0,1-1.16-4.63l-3,1.38a26.93,26.93,0,0,0,6.74,8.1c1,.8,2.54-.27,2.46-1.55a10.53,10.53,0,0,0-2.52-6.06c-1.35-1.69-3-3-4.09-5l-2.58,2.18a55.59,55.59,0,0,1,6.65,9.22,1.58,1.58,0,0,0,2.25.64c1.59-1.3,3.61-1.49,5.41-2.35a6.68,6.68,0,0,0,3.66-4,1.78,1.78,0,0,0-1.58-2.27c-1.57.14-2.64-1.09-3.56-2.35-1.11-1.53-2-3.25-3.06-4.88l-1.85,2.65a14,14,0,0,1,8,8.3c.58,1.48,2.65.93,3-.43a10.11,10.11,0,0,0-.32-6,9.3,9.3,0,0,0-1.37-2.47c-.37-.47-1.58-1.32-1.57-1.92l-2.8,1.27c.69,1,1.36,1.93,2,2.93a13.15,13.15,0,0,1,1.62,2.76c.32,1-.31,2-.79,2.79a23.83,23.83,0,0,1-1.81,3.11c-.57.71-1.25.64-2.07.73a8.09,8.09,0,0,0-2.54.71,8.73,8.73,0,0,0-3.93,3.86c-1.07,2,1.77,3.81,2.83,1.81s2.73-2.65,4.75-2.89c2.65-.32,3.63-2.11,5-4.4s2.63-4.48,1.59-7.16a32,32,0,0,0-4.28-6.79c-.94-1.29-2.77-.16-2.8,1.27-.05,2.16,1.46,3,2.53,4.46a6,6,0,0,1,.84,5l3-.43a17.25,17.25,0,0,0-9.94-9.95c-1.32-.5-2.64,1.36-1.85,2.64,2.18,3.54,4.81,9.42,9.45,9l-1.58-2.27c-.46,1.35-2.06,1.87-3.19,2.23a12.54,12.54,0,0,0-4.38,2l2.24.64a59.65,59.65,0,0,0-7.16-9.94c-1.3-1.46-3.53.41-2.58,2.18a22.41,22.41,0,0,0,3.47,4.43c1.22,1.31,2.58,2.83,2.7,4.81l2.47-1.56a22.45,22.45,0,0,1-5.55-6.8c-1-1.84-3.31-.56-3,1.38a19,19,0,0,0,2.19,7c1.1,1.74,3.48,3.17,5.12,1.33,1.91-2.12-.87-4.62-2.1-6.1q-2.73-3.29-5.53-6.52c-1.28-1.48-3.53.43-2.58,2.18l2.29,4.18,1,1.85a6.76,6.76,0,0,0,.63,1.16c.45.5-.14.57.47-.16h2.32L156,326.89a1.71,1.71,0,0,0-2.58,2.18l4.94,8.21c1.21,2,2.53,5.41,5,5.85,2.06.37,3-3.1.87-3.47Z" transform="translate(-118.37 -185.14)"/><path class="cls-2" d="M145.93,353.28a57.67,57.67,0,0,0-1-7.54,1.64,1.64,0,0,0-2-1.25,1.85,1.85,0,0,0-1.14,2.21c.23,1.14.43,2.28.59,3.44,0,.13,0,.27,0,.41s.1.62,0,.13c0,.27.06.55.09.82.06.59.11,1.18.16,1.78a1.65,1.65,0,1,0,3.28,0Z" transform="translate(-118.37 -185.14)"/><path class="cls-2" d="M157.91,343.15c-2.24-2.42-4.39-4.94-6.42-7.56a1.54,1.54,0,0,0-2.32,0,2,2,0,0,0,0,2.54q3.06,3.94,6.42,7.56a1.56,1.56,0,0,0,2.32,0,2,2,0,0,0,0-2.54Z" transform="translate(-118.37 -185.14)"/><path class="cls-2" d="M163.36,341.34q-.8-2.2-1.6-4.43a13,13,0,0,0-1.95-3.84c-.73-.92-1.8-1.51-2.24-2.57a3.36,3.36,0,0,1,0-2.51,2,2,0,0,0-.59-2.46,1.58,1.58,0,0,0-2.25.64,7.2,7.2,0,0,0,1.55,8.26,9,9,0,0,1,1.32,1.37,8.8,8.8,0,0,1,.83,1.72c.62,1.58,1.15,3.19,1.73,4.78a1.67,1.67,0,0,0,2,1.26,1.84,1.84,0,0,0,1.15-2.22Z" transform="translate(-118.37 -185.14)"/><path class="cls-2" d="M190.51,309.55l.41,11.92a51.49,51.49,0,0,0,.27,5.56,4.14,4.14,0,0,0,2.33,3.5c3.66,1.3,4.91-4,4.83-6.88-.1-3.81-.81-7.68-1.25-11.46-.11-1-.68-1.8-1.64-1.8a1.75,1.75,0,0,0-1.64,1.8c0,2.24.05,4.48,0,6.72-.06,2.06-.42,4.15-.32,6.21a6.32,6.32,0,0,0,2.14,4.84,3.69,3.69,0,0,0,4.35.38c1.16-.71,1-3-.39-3.29-.74-.14-1-.94-1.31-1.65-.48-1.22-.87-2.5-1.28-3.75-.86-2.63-1.64-5.3-2.37-8-.61-2.27-3.48-1.28-3.16,1a28.48,28.48,0,0,0,2.75,8.8,28.79,28.79,0,0,0,2.37,3.83c.86,1.19,2,2.92,3.49,2.92s2.31-1.65,2.81-2.9a14.08,14.08,0,0,0,.9-4.23c.2-2.64-.18-5.39.38-8,.2-.91.73-2.9,1.8-2.95.53,0,1.11.48,1.54.78.67.47,1.32,1,2,1.42l-.76-1.08a34.35,34.35,0,0,1,1.38,6.44,2.64,2.64,0,0,1-.46,2.22,2.7,2.7,0,0,1-2.18.59c-.54-.06-1.93-.22-2.3-.7a6.37,6.37,0,0,1-.11-2.45,16.14,16.14,0,0,1,1.46-6l-1.86.82.2.08-.73-.47c-.11-.21-.14-.28-.07-.21,0,.28,0,.55,0,.83q0,.83.06,1.65c0,1,0,2.07,0,3.1a57.78,57.78,0,0,1-.57,6.31c-.35,2.31,2.36,3.1,3.16,1,1.69-4.54,1-9.52.33-14.21l-3,1.39a16,16,0,0,1,1.63,9.9c-.26,1.61,1.55,3.21,2.74,1.75s1.43-3.73,1.58-5.78a44.62,44.62,0,0,0,0-6.84c-.18-2.27-3.36-2.35-3.28,0a33.21,33.21,0,0,0,2.32,11.05,1.56,1.56,0,0,0,2.24.65,2,2,0,0,0,.59-2.46,27.91,27.91,0,0,1-1.87-9.24h-3.28a45.36,45.36,0,0,1,.11,5.59c0,.9-.1,1.8-.21,2.69a3.61,3.61,0,0,1-.49,1.79l2.74,1.75a20.27,20.27,0,0,0-1.95-12.67c-1-1.88-3.28-.52-3,1.39.6,4.09,1.14,8.34-.33,12.29l3.16,1a63.55,63.55,0,0,0,.72-8.71c0-1.37,0-2.77-.11-4.14a3,3,0,0,0-1.8-2.87,1.62,1.62,0,0,0-1.86.83,21.1,21.1,0,0,0-1.84,6.93c-.19,2.07-.32,4.86,1.38,6.24,3.11,2.52,9.27,1.91,10.09-2.93.4-2.3-.27-4.92-.8-7.14-.26-1.11-.44-2.71-1.37-3.38s-1.67-1.23-2.53-1.76c-1.76-1.1-3.75-1.29-5.37.21a9.15,9.15,0,0,0-2.44,5.33,53.23,53.23,0,0,0-.27,6.68c-.05,1.67-.12,4.2-1.42,5.35l.72-.46-.23.09h.87c-.28,0-.79-.86-1-1.13q-.54-.67-1-1.41a26,26,0,0,1-1.82-3.27,25.55,25.55,0,0,1-2-7.17l-3.16,1c.86,3.2,1.82,6.38,2.88,9.51.81,2.41,1.67,5.86,4.37,6.38l-.4-3.29c-.52.32-1.15-.46-1.34-1-.49-1.26-.16-2.91-.06-4.22.27-3.28.23-6.58.2-9.87h-3.28c.35,3,.71,6,1.05,9.05a17.5,17.5,0,0,1,.16,4,7.4,7.4,0,0,1-.49,1.7l-.2.22a.16.16,0,0,1,.1,0,.26.26,0,0,1,.23.1.39.39,0,0,1-.08-.14,7.94,7.94,0,0,0-.23-1.07c-.07-.72-.05-1.47-.08-2.19l-.16-4.68-.33-9.58a1.64,1.64,0,1,0-3.28,0Z" transform="translate(-118.37 -185.14)"/><path class="cls-2" d="M214.34,322a134,134,0,0,0-6.7-14.11c-1.09-2-3.92-.17-2.83,1.82a132,132,0,0,1,6.69,14.11,1.57,1.57,0,0,0,2.25.64,2,2,0,0,0,.59-2.46Z" transform="translate(-118.37 -185.14)"/><path class="cls-2" d="M219.14,321a28.67,28.67,0,0,0-.38-8.22c-.49-2.54-1.44-4.88-1.06-7.52l-2.74.79a8.41,8.41,0,0,0,2.86,2.29,9.25,9.25,0,0,0,1.67.67c.37.08.09.14,0,0a4.15,4.15,0,0,1,.07.7,36.3,36.3,0,0,0,1.48,8.55l.42-1.75-.13.12.72-.46c.37-.16.72.63.73.28a3.19,3.19,0,0,0-.15-.72,16.45,16.45,0,0,0-.49-1.83c-.42-1.26-.94-2.47-1.46-3.68-.68-1.58-3.2-.84-3.06.91l.57,6.95a1.77,1.77,0,0,0,1.64,1.8,1.73,1.73,0,0,0,1.64-1.8l-.57-6.95-3,.91a26.06,26.06,0,0,1,1.71,5.14c.47,2.16,2.52,3.43,4.22,1.87a1.87,1.87,0,0,0,.42-1.75,35.25,35.25,0,0,1-1-4.35c-.25-1.5-.22-3-.46-4.52a3.75,3.75,0,0,0-2.72-3,5.82,5.82,0,0,1-2.77-1.92,1.6,1.6,0,0,0-2.74.8,15.77,15.77,0,0,0,0,4.55c.19,1.37.62,2.66.92,4a25.33,25.33,0,0,1,.45,8.15,1.65,1.65,0,1,0,3.28,0Z" transform="translate(-118.37 -185.14)"/><path class="cls-2" d="M311.2,293.61a4.71,4.71,0,0,1-1.32.33c-.37,0,0,.08-.18,0s-.14-.19-.1-.11a16.86,16.86,0,0,1-.92-3.11,37.16,37.16,0,0,1-1.29-7.33l-2.08,1.73a5.77,5.77,0,0,0,3.6-.54l.9-.42a4.77,4.77,0,0,1,.54-.24,5.41,5.41,0,0,1,.77-.27s.44-.09.3-.08.32,0,.32,0l-1.58-2.28a21.12,21.12,0,0,0-.59,5.66,28.16,28.16,0,0,0,.27,2.9c.06.47.13.93.2,1.4,0,.21.07.42.11.63,0,0,.09.8.06.35v.16c0,.2,0,.23,0,.09s0-.1,0,.07l.45-.63a1,1,0,0,1,1,0,.21.21,0,0,1,.11.1,1.85,1.85,0,0,0-.16-.32,20.84,20.84,0,0,1-.71-2.39,29.24,29.24,0,0,1-.85-5.27,1.77,1.77,0,0,0-1.64-1.8,1.74,1.74,0,0,0-1.64,1.8A34.45,34.45,0,0,0,308,291a10.84,10.84,0,0,0,1.23,3.18,2.27,2.27,0,0,0,3.13.86c2-1.27.91-4.25.68-6.16a18.41,18.41,0,0,1,.32-6.62,1.8,1.8,0,0,0-1.58-2.28,8.19,8.19,0,0,0-3.42,1,8.21,8.21,0,0,1-1.12.49l-.34.11s-.43.09-.29.07-.6,0-.38,0a1.7,1.7,0,0,0-2.08,1.74,44.53,44.53,0,0,0,1.7,9.52c.38,1.47.82,3.05,2,4s2.86.72,4.25.22a1.85,1.85,0,0,0,1.14-2.21,1.63,1.63,0,0,0-2-1.25Z" transform="translate(-118.37 -185.14)"/><path class="cls-2" d="M319.32,292.54q.06-3.24.18-6.48a23.18,23.18,0,0,1,.15-2.71c.11-.59.13-.74.68-.86a22.91,22.91,0,0,1,2.64-.25l2.89-.27,5.92-.54a1.77,1.77,0,0,0,1.64-1.8c0-.91-.75-1.88-1.64-1.8l-6.61.61-3.3.3a9.1,9.1,0,0,0-3.23.59c-2.09,1-2.28,3.46-2.37,5.65-.11,2.52-.18,5-.23,7.56a1.64,1.64,0,1,0,3.28,0Z" transform="translate(-118.37 -185.14)"/><path class="cls-2" d="M331,279.5c.15,1.18.24,2.38.29,3.57a18.06,18.06,0,0,1,0,3c-.09.6-.25.81-.71.9a18.84,18.84,0,0,1-2.91,0,32.9,32.9,0,0,0-6.61.93,3.06,3.06,0,0,1-.51.1c-.76.05-.16,0-.17,0,0-.14.27.52.25.52a6.83,6.83,0,0,0,.28-.84l.57-1.69.34-1,.14-.42c.18-.4.12-.39-.16.06l-.83.24c1.44-.16,2.91-.16,4.36-.23l2.21-.11,1.1-.05a5.35,5.35,0,0,1,.85-.09l-1-.82a7.12,7.12,0,0,1,.22,1.23,4.94,4.94,0,0,0,.19.9c-.32-.25,1.31-1.4.3-1.19l-2.87.58-2.74.54-1.5.31-.69.13-.27.06c-.43.05-.37.09.19.12l.59.64,0,.11V288l0-.16-.42.79.14-.12L321,289a15.59,15.59,0,0,1,6.84-1.1,1.68,1.68,0,0,0,1.61-1.56c.09-.79-.36-1.84-1.17-2l-3.55-.58c-.54-.09-1.08-.15-1.61-.26-.17,0-.34-.1-.5-.15.12.07.1,0-.07-.05a.78.78,0,0,1,.35.74,1.77,1.77,0,0,0-1.64-1.8,1.74,1.74,0,0,0-1.64,1.8,3.22,3.22,0,0,0,2.92,3l4.86.79.44-3.53a19.67,19.67,0,0,0-7.05,1,3,3,0,0,0-1.65,1,2.32,2.32,0,0,0-.09,2.41c.86,1.55,2.46,1.07,3.79.8,2.46-.49,4.95-.88,7.39-1.48a2.54,2.54,0,0,0,1.87-3.12c-.22-1.28-.38-3.48-1.73-3.91a5.52,5.52,0,0,0-1.86,0l-1.93.1-3.72.19c-1.31.06-2.94-.12-3.65,1.35a32.84,32.84,0,0,0-1.36,3.91c-.48,1.42-.82,2.8.21,4a3.38,3.38,0,0,0,3.41,1c1.1-.21,2.18-.52,3.29-.68a27,27,0,0,1,3.59-.24,10.25,10.25,0,0,0,3.45-.25,4.13,4.13,0,0,0,2.57-2.88,13.16,13.16,0,0,0,.21-4.11c-.06-1.62-.22-3.22-.42-4.83a1.62,1.62,0,0,0-2-1.25A1.87,1.87,0,0,0,331,279.5Z" transform="translate(-118.37 -185.14)"/><path class="cls-2" d="M340.69,290.27c-.19-2.24-.38-4.49-.43-6.75,0-1.1,0-2.2,0-3.3a11.65,11.65,0,0,1,.31-3l-.43.79-.1.1-.83.25c-.24,0,.08,0,.14,0l.46.12.93.23,1.87.46a12.41,12.41,0,0,1,3.13.9,1.47,1.47,0,0,1,.59.81,14.76,14.76,0,0,1,.49,1.63,11.42,11.42,0,0,1,.38,3.54,5.48,5.48,0,0,1-.31,1.51c.06-.17-.28.39-.13.23s.18.06,0-.07a3,3,0,0,0-.76-.26l-.89-.33c-.56-.21-1.13-.4-1.69-.64a1.07,1.07,0,0,1-.59-.45s-.12-.3,0-.07c0-.11-.06-.24-.09-.36s0-.3,0-.13,0-.3,0-.34c0-.27,0-.53,0-.8l0-.39s.05-.36,0-.1l.27-2,.06-.5c.08-.55.24-.53-.55,0l-.62.38c.17.06.2.07.1,0s.37.19.39.2l.89.47a2,2,0,0,0,.33.19c-.56.19-.28-.89-.36-.26a10,10,0,0,0,.16,2.25,20.27,20.27,0,0,0,.45,2.47l.75-2c.22-.15.42,0,.59,0-.1,0-.13-.18-.25-.36s-.1-.23,0-.05a2.19,2.19,0,0,1-.1-.34,2,2,0,0,1-.07-.35c0,.26,0,0,0-.14a2.14,2.14,0,0,1,.16-1,1.15,1.15,0,0,1,.48-.6l-.83.25h.16l-.83-.25c-.29-.41-.35-.47-.17-.17l.06.13a5.66,5.66,0,0,1,.15.59,11.9,11.9,0,0,1,.12,1.29,9.31,9.31,0,0,0,.76,3.43,1.6,1.6,0,0,0,3-.43l.83-2.73a1.85,1.85,0,0,0-1.15-2.21,1.66,1.66,0,0,0-2,1.25l-.82,2.73,3-.43a5.42,5.42,0,0,1-.33-1.92,10.73,10.73,0,0,0-.43-2.72c-.38-1.09-1.05-2.16-2.24-2.16a3.13,3.13,0,0,0-2.38,1.81,6.24,6.24,0,0,0-.52,4.9c.65,1.93,2.59,3.87,4.52,2.58a1.93,1.93,0,0,0,.75-2,16.13,16.13,0,0,1-.48-3.26c-.05-1.39-.16-2.6-1.36-3.39a11.72,11.72,0,0,0-1.35-.73,3.84,3.84,0,0,0-1.64-.57c-1.42-.05-2.13,1.13-2.31,2.51-.27,2-.84,4.28-.24,6.26a4.38,4.38,0,0,0,2,2.61,22.55,22.55,0,0,0,2.94,1.18c1.16.43,2.33.9,3.53.33a4.18,4.18,0,0,0,2-2.72,13.29,13.29,0,0,0-.22-7.13,10,10,0,0,0-1.17-2.93,5,5,0,0,0-2.81-1.95c-1-.29-2-.51-3-.76s-2.05-.57-3.08-.76a2,2,0,0,0-2.25,1,6,6,0,0,0-.41,2.1,37.23,37.23,0,0,0-.22,4.09c0,2.74.22,5.47.45,8.2a1.77,1.77,0,0,0,1.64,1.8,1.73,1.73,0,0,0,1.64-1.8Z" transform="translate(-118.37 -185.14)"/><path class="cls-2" d="M353.6,281.41a9.53,9.53,0,0,1-1.82,7.19c-.58.74.15,2,1,1.41a5.88,5.88,0,0,0,1.6-2.53,23.65,23.65,0,0,0,1.26-3.14,9.8,9.8,0,0,0-.13-6.65.78.78,0,0,0-1.12-.32,1,1,0,0,0-.3,1.23,7.85,7.85,0,0,1,0,5.26,20.52,20.52,0,0,1-1,2.53l-.6,1.24c-.14.27-.26.67-.5.82l1,1.42a11.59,11.59,0,0,0,2.24-8.94.83.83,0,0,0-1-.63.94.94,0,0,0-.57,1.11Z" transform="translate(-118.37 -185.14)"/><path class="cls-2" d="M349.6,290.57a14.09,14.09,0,0,0-1-13.15.81.81,0,0,0-1.13-.32,1,1,0,0,0-.29,1.23,12.15,12.15,0,0,1,1,11.33c-.46,1,.95,1.95,1.41.91Z" transform="translate(-118.37 -185.14)"/><path class="cls-2" d="M334.36,291.76a43.54,43.54,0,0,0-.7-10.63c-.22-1.13-1.8-.65-1.58.48a41.59,41.59,0,0,1,.64,10.15.82.82,0,1,0,1.64,0Z" transform="translate(-118.37 -185.14)"/><path class="cls-2" d="M338.76,292a21.82,21.82,0,0,0-.41-7.21c-.25-1.13-1.83-.65-1.58.48a20.54,20.54,0,0,1,.35,6.73.86.86,0,0,0,.82.9c.49,0,.76-.42.82-.9Z" transform="translate(-118.37 -185.14)"/><path class="cls-2" d="M352.62,287.7a8.31,8.31,0,0,1-5.3,2.82,23.11,23.11,0,0,1-3.21.32,3,3,0,0,1-2.69-.91c-.63-.91-2.05,0-1.42.91,1.64,2.39,4.7,1.87,7.08,1.52a10,10,0,0,0,6.7-3.39c.7-.87-.46-2.14-1.16-1.27Z" transform="translate(-118.37 -185.14)"/><path class="cls-2" d="M317.61,294.19a19.89,19.89,0,0,1,.67-4.19l.87-4.36c.22-1.13-1.36-1.61-1.58-.48l-.91,4.53a22.06,22.06,0,0,0-.69,4.5.82.82,0,1,0,1.64,0Z" transform="translate(-118.37 -185.14)"/><path class="cls-2" d="M313.87,294.53a53,53,0,0,1-.76-9c0-1.46.06-2.92.19-4.37a9.24,9.24,0,0,1,.86-4.05.84.84,0,1,0-1.42-.91,9.32,9.32,0,0,0-1,3.92c-.17,1.68-.26,3.37-.28,5.06a56.37,56.37,0,0,0,.82,9.8c.19,1.14,1.78.66,1.58-.47Z" transform="translate(-118.37 -185.14)"/><path class="cls-2" d="M256,275.6a5.9,5.9,0,0,1,1.53-1.12.93.93,0,0,0-.41-1.68,2,2,0,0,0-1.58.72c-.74.83.41,2.09,1.16,1.27a3.91,3.91,0,0,1,2-1.05,26.57,26.57,0,0,1,2.63-.52A28.35,28.35,0,0,1,267,273c1.06.06,1.05-1.74,0-1.8a29.72,29.72,0,0,0-6.25.31c-1.77.28-3.84.55-5.16,2l1.16,1.27a.4.4,0,0,1,.42-.19l-.42-1.68a7.62,7.62,0,0,0-1.86,1.41c-.77.79.39,2.06,1.16,1.27Z" transform="translate(-118.37 -185.14)"/><path class="cls-2" d="M254.21,275.3c4.77-4.78,11.62-4.59,17.34-2.26.49.21.71-.66.22-.86-6-2.45-13.16-2.51-18.14,2.48-.39.39.2,1,.58.64Z" transform="translate(-118.37 -185.14)"/><path class="cls-2" d="M266.87,271.6c4.95-1.45,8.3,3.76,10.26,7.9l.46-.66c-6.06-1.44-12.3-2.92-18.54-2.14a28.38,28.38,0,0,0-14.91,7.08l.4-.11a13.36,13.36,0,0,0,1.05-1.85,9.09,9.09,0,0,1,1.38-1.64,13.75,13.75,0,0,1,3.21-2.22c2.56-1.32,5.33-2.1,7.81-3.63.47-.28.05-1.06-.41-.77-3.07,1.88-6.62,2.62-9.6,4.69a11.2,11.2,0,0,0-3.18,3.25c-.33.53-1.53,2.43-.66,3,.44.26.77-.21,1.09-.48.77-.65,1.57-1.26,2.39-1.83a28.92,28.92,0,0,1,4.88-2.73,25.58,25.58,0,0,1,11.4-2,70.37,70.37,0,0,1,13.48,2.29.45.45,0,0,0,.46-.66c-2.15-4.54-5.85-9.88-11.19-8.32-.51.15-.29,1,.22.87Z" transform="translate(-118.37 -185.14)"/><path class="cls-2" d="M246.24,281.1c3.14-3.21,7.2-4.88,11.23-6.27,4.26-1.48,8.93-2.8,13.25-.89.49.21.71-.66.22-.87-4.45-2-9.3-.63-13.68.89-4.17,1.44-8.35,3.19-11.6,6.51-.39.39.19,1,.58.63Z" transform="translate(-118.37 -185.14)"/><path class="cls-2" d="M244.22,283.12l-.9,1.58.71.45a23.7,23.7,0,0,1,13-12.38c5.36-2.16,14.89-3.75,17.51,3.71a.41.41,0,1,0,.79-.24c-2.08-5.91-8.39-6.67-13.38-5.8a25.7,25.7,0,0,0-13.49,6.87,23.48,23.48,0,0,0-5.1,7.39c-.22.52.43.95.71.45l.9-1.57c.28-.49-.43-.95-.71-.46Z" transform="translate(-118.37 -185.14)"/><path class="cls-2" d="M244,285.37c1.17-1.07,2.12-2.37,3.2-3.53a9,9,0,0,1,1.9-1.59,20.67,20.67,0,0,1,2.64-1c3.5-1.44,6.78-3.28,10.61-3.39l-.1-.89a17,17,0,0,1-5,1.28c-.52.05-.53.93,0,.9l3.53-.18a.45.45,0,0,0,.39-.57l-.67-2.48a.4.4,0,0,0-.69-.19c-1,1-2.48.88-3.59,1.65a.49.49,0,0,0-.08.71c.68.72,1.65.39,2.49.26s1.69-.36,1.73-1.46a.43.43,0,0,0-.41-.45,5,5,0,0,0-3.26,1.06.48.48,0,0,0-.09.7c.8.92,2.56.06,3.44-.26.5-.19.28-1-.22-.87s-2.22,1-2.64.5l-.08.7a4.4,4.4,0,0,1,2.85-.93l-.41-.45c0,.73-2.53.87-2.82.56l-.08.71c1.18-.83,2.7-.69,3.75-1.8l-.68-.2.67,2.48.4-.57-3.53.18v.9a17.62,17.62,0,0,0,5.18-1.31c.41-.17.39-.9-.11-.88a17.73,17.73,0,0,0-5.63,1.16c-1.88.69-3.65,1.67-5.51,2.39a11.07,11.07,0,0,0-4.18,2.32c-1.27,1.24-2.29,2.75-3.61,3.94a.43.43,0,0,0,.58.64Z" transform="translate(-118.37 -185.14)"/><path class="cls-2" d="M265.87,271c.86.16,1.73,0,2.59.1a6.73,6.73,0,0,1,2.5.73,5.55,5.55,0,0,1,2.85,3.66c.13.56.92.32.79-.24a6.42,6.42,0,0,0-3-4.06,7.21,7.21,0,0,0-2.56-.91,9.18,9.18,0,0,0-1.38-.12,9.38,9.38,0,0,1-1.59,0c-.51-.1-.74.77-.22.86Z" transform="translate(-118.37 -185.14)"/><path class="cls-2" d="M265,271a7.73,7.73,0,0,1,7.06,2.72c.35.44.92-.2.58-.63a8.44,8.44,0,0,0-7.64-3c-.51.06-.52,1,0,.9Z" transform="translate(-118.37 -185.14)"/><path class="cls-2" d="M276.41,278.06a4.93,4.93,0,0,1-3.1-.68,5,5,0,0,0-2.62-.57,3.9,3.9,0,0,1-1.52-.13,12.84,12.84,0,0,0-1.36-.47c-1-.21-2,.05-2.95-.27v.86a4.54,4.54,0,0,0,3.35-4.63l-.51.44a23.91,23.91,0,0,1,3.84,1.25,11.31,11.31,0,0,1,3,2.81c.36.43.93-.21.58-.64a11.88,11.88,0,0,0-3.14-2.95,25.85,25.85,0,0,0-4-1.34.42.42,0,0,0-.52.43,3.67,3.67,0,0,1-2.75,3.77c-.41.08-.36.74,0,.86,1,.35,2.05.06,3.06.3.53.12,1,.41,1.54.54a4.7,4.7,0,0,0,1.45.07,5.86,5.86,0,0,1,3,.82,4.84,4.84,0,0,0,3,.39c.52-.09.3-.95-.22-.86Z" transform="translate(-118.37 -185.14)"/><path class="cls-2" d="M275.2,275.83a18.22,18.22,0,0,1-2.09,0c-.38,0-.75-.07-1.12-.12l-.18,0-.51-.1a3.93,3.93,0,0,1-1.49-.66c-.23-.16.09.11-.09-.08l-.3-.32h0l-.12-.19c0-.07-.07-.14-.1-.2a.79.79,0,0,1,0,.57l-.31.59-.11.1-.62.19a6.76,6.76,0,0,1,1.49.05c-.22,0,.17,0,.17,0l.37.08.74.2c.24.08.48.17.71.27,0,0,.36.16.18.07l.34.17c.18.1.35.23.53.32s.06,0,0,0l.11.11c.06.08.05.05,0-.06s-.05-.17,0,0a1.23,1.23,0,0,0,1.51.94,1.39,1.39,0,0,0,.86-1.66c-.37-1.42-1.75-2-2.9-2.48a9.77,9.77,0,0,0-3.53-.69,2,2,0,0,0-1.16.22,1.6,1.6,0,0,0-.72,1.38,3.24,3.24,0,0,0,.87,2,5.48,5.48,0,0,0,3.09,1.78,16.5,16.5,0,0,0,4.43.32,1.36,1.36,0,0,0,0-2.7Z" transform="translate(-118.37 -185.14)"/><path class="cls-2" d="M262,273.05c.12-.07.08-.06-.1,0l.13,0c.13,0,.09,0-.12,0h.51c-.21,0-.25,0-.1,0s.56.1.85.13a3.67,3.67,0,0,0,.93-.06,1.36,1.36,0,0,0,.9-1.31,1.4,1.4,0,0,0-.9-1.3,3.91,3.91,0,0,0-1.95-.11l1.56,1.3v0l-.16.68a.91.91,0,0,1-.74.53c-.13,0-.15,0-.06,0-.24-.05-.31-.05-.19,0l.37.05a2.83,2.83,0,0,0,.41,0,8.17,8.17,0,0,0,1.2-.14l.12,0-.16,0,.25,0a3.53,3.53,0,0,1,.46,0,2.26,2.26,0,0,0,1.32-.26,1.44,1.44,0,0,0,.44-1.85,1.19,1.19,0,0,0-1.68-.48.59.59,0,0,1,.34-.1h-.11l-.27,0a4.21,4.21,0,0,0-.5,0l-.78.11a2.93,2.93,0,0,1-.29.05l.16,0-.17,0a2.75,2.75,0,0,1-.5,0H263c.17,0,.22,0,.14,0s-.3-.05-.45-.05a1.54,1.54,0,0,0-.8.23,1.59,1.59,0,0,0-.65,1.28,1.34,1.34,0,0,0,.49,1.06,1.18,1.18,0,0,0,1.07.24c-.38.07,0,0,.08,0h.24c.27,0-.26-.07,0,0l.31.1v-2.61c.36-.06,0,0-.1,0l-.17,0h.06a1,1,0,0,1-.34-.06,5,5,0,0,0-.54-.07,2.49,2.49,0,0,0-1.59.36,1.44,1.44,0,0,0-.44,1.85,1.19,1.19,0,0,0,1.68.48Z" transform="translate(-118.37 -185.14)"/><path class="cls-3" d="M232.83,273.8c-5.29,8-10,16.43-9.42,26.7.52,8.73,4.22,17.17,10.49,22.66,2.45,2.14,5.95-1.65,3.48-3.82a27.44,27.44,0,0,1-9.08-19.49c-.36-9.05,4.13-16.29,8.78-23.32,1.86-2.82-2.41-5.52-4.25-2.73Z" transform="translate(-118.37 -185.14)"/><path class="cls-3" d="M245.22,259a49.12,49.12,0,0,0-19.6,27.11,47.14,47.14,0,0,0-2,17.91c.61,5.91,3.69,12.16,9.55,13.08a2.53,2.53,0,0,0,3-1.89c.33-1.26-.41-3.11-1.72-3.32-5.29-.82-6.19-7.2-6.1-12.06a46.14,46.14,0,0,1,2.56-14.2,43.05,43.05,0,0,1,16.72-22c2.71-1.79.24-6.46-2.48-4.66Z" transform="translate(-118.37 -185.14)"/><path class="cls-3" d="M292.29,273.2a50.37,50.37,0,0,1,8.25,20.94c1.06,6.64,1.36,15.66-4.75,19.56-2.74,1.75-.26,6.41,2.48,4.66,7.29-4.66,8.39-14.32,7.42-22.7a55.32,55.32,0,0,0-9.15-25.18c-.82-1.17-2.11-1.75-3.37-1a2.85,2.85,0,0,0-.88,3.69Z" transform="translate(-118.37 -185.14)"/></svg>